<svg xmlns="http://www.w3.org/2000/svg" xmlns:xlink="http://www.w3.org/1999/xlink" width="60" zoomAndPan="magnify" viewBox="0 0 375 374.999991" height="60" preserveAspectRatio="xMidYMid meet" version="1.0"><defs><g/></defs><path fill="#38b6ff" d="M 290.320312 150.394531 C 287.785156 145.121094 285.210938 139.875 282.585938 134.664062 L 278.621094 126.847656 L 274.601562 119.078125 L 270.515625 111.339844 C 269.15625 108.757812 267.789062 106.183594 266.394531 103.625 L 262.488281 96.484375 L 143.367188 111.105469 L 143.378906 111.117188 C 142.664062 110.480469 141.949219 109.84375 141.226562 109.207031 L 133.207031 102.113281 L 127.753906 97.285156 L 123.683594 102.539062 C 119.664062 107.730469 115.640625 112.910156 111.695312 118.15625 C 109.703125 120.761719 107.730469 123.386719 105.777344 126.03125 C 103.820312 128.667969 101.847656 131.292969 99.921875 133.960938 C 96.039062 139.265625 92.191406 144.59375 88.417969 149.988281 C 84.636719 155.382812 80.902344 160.808594 77.3125 166.367188 C 82.277344 161.996094 87.09375 157.5 91.871094 152.96875 C 96.65625 148.441406 101.367188 143.851562 106.039062 139.234375 C 108.390625 136.929688 110.695312 134.597656 113.015625 132.269531 C 115.339844 129.953125 117.648438 127.613281 119.933594 125.261719 C 122.847656 122.300781 125.726562 119.3125 128.605469 116.324219 L 131.433594 119.320312 C 133.882812 121.921875 136.335938 124.507812 138.820312 127.066406 L 146.253906 134.773438 L 153.746094 142.402344 C 158.722656 147.515625 163.804688 152.527344 168.847656 157.570312 C 173.878906 162.621094 179.027344 167.5625 184.113281 172.5625 L 186.542969 174.964844 L 190.113281 174.992188 C 193.636719 175.03125 197.15625 174.976562 200.671875 174.96875 L 211.238281 174.914062 L 215.320312 174.898438 L 217.792969 171.859375 L 230.070312 156.800781 L 242.175781 141.589844 C 246.152344 136.476562 250.1875 131.414062 254.105469 126.25 L 260.023438 118.53125 L 260.996094 117.226562 L 266.011719 124.339844 L 271.109375 131.449219 L 276.273438 138.53125 C 279.730469 143.234375 283.234375 147.914062 286.78125 152.5625 C 290.351562 157.203125 293.9375 161.828125 297.679688 166.367188 C 295.328125 160.976562 292.835938 155.679688 290.320312 150.394531 " fill-opacity="1" fill-rule="nonzero"/><path fill="#38b6ff" d="M 111.042969 164.191406 L 126.84375 163.839844 L 126.84375 150.066406 L 111.042969 152.1875 L 111.042969 164.191406 " fill-opacity="1" fill-rule="nonzero"/><path fill="#38b6ff" d="M 129.230469 179.84375 L 145.035156 181.511719 L 145.035156 165.699219 L 129.230469 165.804688 L 129.230469 179.84375 " fill-opacity="1" fill-rule="nonzero"/><path fill="#38b6ff" d="M 111.042969 177.921875 L 126.84375 179.589844 L 126.84375 165.816406 L 111.042969 165.914062 L 111.042969 177.921875 " fill-opacity="1" fill-rule="nonzero"/><path fill="#38b6ff" d="M 129.230469 163.785156 L 145.035156 163.433594 L 145.035156 147.625 L 129.230469 149.746094 L 129.230469 163.785156 " fill-opacity="1" fill-rule="nonzero"/><path fill="#38b6ff" d="M 261.132812 175.589844 L 273.703125 173.898438 L 273.703125 164.707031 L 261.132812 164.820312 L 261.132812 175.589844 " fill-opacity="1" fill-rule="nonzero"/><path fill="#38b6ff" d="M 246.660156 177.527344 L 259.234375 175.84375 L 259.234375 164.832031 L 246.660156 164.949219 L 246.660156 177.527344 " fill-opacity="1" fill-rule="nonzero"/><path fill="#38b6ff" d="M 261.132812 163.277344 L 273.703125 163.386719 L 273.703125 154.195312 L 261.132812 152.503906 L 261.132812 163.277344 " fill-opacity="1" fill-rule="nonzero"/><path fill="#38b6ff" d="M 246.660156 163.144531 L 259.234375 163.257812 L 259.234375 152.253906 L 246.660156 150.5625 L 246.660156 163.144531 " fill-opacity="1" fill-rule="nonzero"/><g fill="#38b6ff" fill-opacity="1"><g transform="translate(92.536199, 254.907449)"><g><path d="M 13.375 -33.671875 C 14.632812 -33.671875 15.289062 -33.101562 15.34375 -31.96875 L 15.34375 -27.859375 L 15.390625 -27.1875 L 15.34375 -27.1875 L 15.390625 -27.015625 C 15.390625 -26.984375 15.375 -26.96875 15.34375 -26.96875 L 15.390625 -26.796875 C 15.390625 -26.765625 15.375 -26.75 15.34375 -26.75 L 15.390625 -26.40625 L 15.390625 -20.265625 L 15.46875 -19.875 L 15.390625 -19.703125 C 15.441406 -19.441406 15.46875 -19.226562 15.46875 -19.0625 C 15.46875 -18.914062 15.441406 -18.757812 15.390625 -18.59375 C 15.441406 -18.332031 15.46875 -18.117188 15.46875 -17.953125 C 15.46875 -16.410156 15.023438 -15.515625 14.140625 -15.265625 C 14.140625 -15.035156 12.078125 -14.921875 7.953125 -14.921875 L 7.515625 -14.921875 L 7.515625 -13.15625 C 7.515625 -13.101562 7.488281 -13.078125 7.4375 -13.078125 L 7.515625 -12.953125 L 7.515625 -10.34375 C 7.515625 -9.632812 7.53125 -8.992188 7.5625 -8.421875 C 7.53125 -8.160156 7.515625 -7.601562 7.515625 -6.75 L 7.515625 -6.453125 C 7.515625 -6.335938 7.53125 -6.238281 7.5625 -6.15625 C 7.5625 -6.125 7.546875 -6.109375 7.515625 -6.109375 L 7.5625 -5.390625 L 7.5625 -0.125 C 7.363281 -0.125 7.207031 -0.0664062 7.09375 0.046875 L 6.109375 0.046875 C 5.992188 0.046875 5.894531 0.0546875 5.8125 0.078125 L 5.6875 0.046875 C 5.601562 0.0664062 5.53125 0.078125 5.46875 0.078125 L 5.171875 0.046875 L 4.828125 0.078125 C 4.773438 0.078125 4.75 0.0664062 4.75 0.046875 L 4.40625 0.078125 L 3.203125 0.078125 C 3.035156 0.078125 2.820312 0.109375 2.5625 0.171875 C 2.28125 0.0546875 2.125 -0.0546875 2.09375 -0.171875 L 2.09375 -1.796875 C 2.09375 -1.960938 2.066406 -2.175781 2.015625 -2.4375 C 2.066406 -2.519531 2.09375 -2.617188 2.09375 -2.734375 C 2.039062 -3.191406 2.015625 -3.535156 2.015625 -3.765625 C 2.015625 -3.816406 2.039062 -3.882812 2.09375 -3.96875 L 2.015625 -4.40625 L 2.015625 -4.703125 C 2.015625 -4.734375 2.039062 -4.75 2.09375 -4.75 L 2.015625 -4.921875 L 2.015625 -14.015625 L 1.921875 -14.875 C 1.492188 -14.925781 1.066406 -14.953125 0.640625 -14.953125 C 0.472656 -14.984375 0.375 -15.054688 0.34375 -15.171875 C 0.375 -16.285156 0.390625 -17.179688 0.390625 -17.859375 L 0.390625 -19.65625 C 0.390625 -19.96875 0.488281 -20.125 0.6875 -20.125 L 1.875 -20.125 L 1.875 -21.078125 L 1.921875 -21.078125 C 1.921875 -21.097656 1.90625 -21.109375 1.875 -21.109375 L 1.921875 -21.625 L 1.875 -21.96875 L 1.921875 -21.96875 L 1.875 -22.09375 L 1.875 -26.328125 L 1.796875 -26.671875 L 1.875 -26.671875 L 1.796875 -26.796875 L 1.796875 -30.46875 C 1.796875 -30.582031 1.78125 -30.679688 1.75 -30.765625 C 1.75 -30.796875 1.765625 -30.8125 1.796875 -30.8125 L 1.75 -31.328125 L 1.75 -32.015625 C 1.75 -32.410156 1.722656 -32.78125 1.671875 -33.125 C 1.753906 -33.351562 1.894531 -33.46875 2.09375 -33.46875 L 8.421875 -33.46875 L 8.421875 -33.375 L 8.546875 -33.375 L 8.546875 -33.59375 L 10.046875 -33.59375 C 10.753906 -33.59375 11.863281 -33.617188 13.375 -33.671875 Z M 7.3125 -28.8125 L 7.3125 -27.65625 C 7.3125 -26.96875 7.320312 -25.910156 7.34375 -24.484375 L 7.3125 -24.484375 C 7.332031 -24.398438 7.34375 -24.332031 7.34375 -24.28125 C 7.34375 -23.28125 7.375 -21.894531 7.4375 -20.125 L 7.5625 -20.09375 L 9.484375 -20.09375 C 9.796875 -20.09375 9.953125 -20.273438 9.953125 -20.640625 C 9.867188 -23.515625 9.828125 -26.132812 9.828125 -28.5 C 9.828125 -28.707031 9.726562 -28.8125 9.53125 -28.8125 Z M 7.3125 -28.8125 "/></g></g></g><g fill="#38b6ff" fill-opacity="1"><g transform="translate(109.462696, 254.907449)"><g><path d="M 6.921875 -33.765625 C 7.234375 -33.765625 7.390625 -33.648438 7.390625 -33.421875 L 7.390625 -20.265625 L 8.03125 -20.21875 C 8.113281 -20.21875 8.242188 -20.257812 8.421875 -20.34375 C 8.585938 -20.257812 8.710938 -20.21875 8.796875 -20.21875 L 9.0625 -20.34375 L 9.3125 -20.21875 C 9.882812 -20.300781 10.359375 -20.34375 10.734375 -20.34375 L 10.859375 -20.34375 C 10.992188 -20.34375 11.0625 -20.628906 11.0625 -21.203125 L 10.734375 -33.125 C 10.847656 -33.382812 11.171875 -33.515625 11.703125 -33.515625 L 15.90625 -33.515625 C 16.070312 -33.484375 16.15625 -33.394531 16.15625 -33.25 C 16.238281 -24.101562 16.28125 -18.429688 16.28125 -16.234375 L 16.40625 -15.34375 C 16.40625 -15.257812 16.363281 -15.21875 16.28125 -15.21875 C 16.363281 -14.476562 16.453125 -10.332031 16.546875 -2.78125 L 16.671875 -2.515625 C 16.585938 -2.378906 16.546875 -2.210938 16.546875 -2.015625 L 16.546875 -0.34375 C 16.546875 -0.164062 16.457031 -0.078125 16.28125 -0.078125 L 13.25 -0.078125 L 12.359375 0.046875 L 12.359375 -0.078125 L 12.09375 0.046875 L 11.328125 0.046875 C 11.210938 0.046875 11.082031 -0.125 10.9375 -0.46875 C 10.9375 -0.925781 10.976562 -1.328125 11.0625 -1.671875 C 10.976562 -6.910156 10.9375 -10.15625 10.9375 -11.40625 L 10.9375 -14.875 L 10.34375 -15 C 9.945312 -15 9.003906 -14.957031 7.515625 -14.875 L 7.515625 -10.90625 L 7.65625 -10.171875 C 7.5625 -10.003906 7.515625 -9.832031 7.515625 -9.65625 C 7.609375 -9.488281 7.65625 -9.363281 7.65625 -9.28125 C 7.65625 -9.1875 7.609375 -9.140625 7.515625 -9.140625 L 7.65625 -8.5 L 7.5625 -0.296875 C 7.476562 -0.046875 7.238281 0.078125 6.84375 0.078125 L 6.703125 0.078125 C 5.796875 0.078125 4.472656 0.0507812 2.734375 0 C 2.566406 -0.28125 2.484375 -0.535156 2.484375 -0.765625 L 2.484375 -1.28125 C 2.484375 -1.539062 2.523438 -1.671875 2.609375 -1.671875 L 2.484375 -2.265625 L 2.484375 -14.78125 L 1.234375 -14.78125 C 1.003906 -14.78125 0.890625 -15.109375 0.890625 -15.765625 C 0.804688 -16.140625 0.765625 -16.828125 0.765625 -17.828125 L 0.765625 -19.828125 C 0.765625 -20.023438 0.894531 -20.15625 1.15625 -20.21875 L 2.34375 -20.21875 C 2.257812 -26.96875 2.21875 -30.898438 2.21875 -32.015625 C 2.21875 -32.148438 2.191406 -32.617188 2.140625 -33.421875 L 2.3125 -33.546875 L 4.484375 -33.671875 C 5.171875 -33.671875 5.984375 -33.703125 6.921875 -33.765625 Z M 6.921875 -33.765625 "/></g></g></g><g fill="#38b6ff" fill-opacity="1"><g transform="translate(127.927966, 254.907449)"><g><path d="M 4.28125 -33.546875 L 4.65625 -33.546875 C 4.6875 -33.546875 4.703125 -33.519531 4.703125 -33.46875 L 4.875 -33.546875 L 9.1875 -33.546875 L 9.40625 -33.421875 L 9.484375 -33.421875 L 9.484375 -33.546875 L 13.328125 -33.546875 C 14.078125 -33.546875 14.648438 -33.265625 15.046875 -32.703125 L 15.046875 -32.21875 C 15.359375 -32.21875 15.515625 -31.394531 15.515625 -29.75 L 15.515625 -26.109375 C 15.515625 -25.992188 15.539062 -25.894531 15.59375 -25.8125 C 15.59375 -25.78125 15.566406 -25.765625 15.515625 -25.765625 L 15.59375 -24.625 C 15.59375 -22.625 15.640625 -19.703125 15.734375 -15.859375 L 15.640625 -15.859375 L 15.734375 -15.734375 L 15.734375 -14.015625 C 15.734375 -13.984375 15.703125 -13.96875 15.640625 -13.96875 L 15.734375 -13.8125 L 15.734375 -13.421875 C 15.734375 -13.359375 15.703125 -13.328125 15.640625 -13.328125 L 15.734375 -13.203125 L 15.734375 -5.59375 C 15.734375 -5.34375 15.703125 -5.015625 15.640625 -4.609375 L 15.734375 -3.203125 C 15.734375 -2.066406 15.445312 -1.269531 14.875 -0.8125 C 14.332031 -0.1875 13.59375 0.125 12.65625 0.125 L 10.171875 0.125 L 9.484375 0.21875 L 9.484375 0.125 L 9.359375 0.21875 L 5.859375 0.21875 C 4.316406 0.21875 3.304688 -0.140625 2.828125 -0.859375 C 2.398438 -1.535156 2.1875 -2.160156 2.1875 -2.734375 L 2.265625 -3.03125 C 2.265625 -3.09375 2.238281 -3.320312 2.1875 -3.71875 L 2.265625 -4.359375 C 2.265625 -4.390625 2.238281 -4.40625 2.1875 -4.40625 L 2.265625 -4.78125 L 2.265625 -5.25 C 2.265625 -5.363281 2.238281 -5.46875 2.1875 -5.5625 L 2.265625 -5.6875 C 2.265625 -5.738281 2.238281 -5.765625 2.1875 -5.765625 C 2.1875 -5.847656 2.210938 -5.890625 2.265625 -5.890625 L 2.140625 -9.53125 C 2.140625 -9.582031 2.15625 -9.65625 2.1875 -9.75 C 2.15625 -10.625 2.140625 -11.347656 2.140625 -11.921875 L 2.140625 -13.8125 C 2.140625 -13.914062 2.109375 -14.015625 2.046875 -14.109375 L 2.140625 -14.234375 C 2.078125 -16.171875 2.019531 -17.4375 1.96875 -18.03125 L 2.046875 -18.328125 L 1.921875 -22.3125 L 1.96875 -22.4375 C 1.9375 -22.945312 1.921875 -23.40625 1.921875 -23.8125 L 1.921875 -25.46875 C 1.921875 -25.582031 1.894531 -25.679688 1.84375 -25.765625 C 1.894531 -25.859375 1.921875 -25.945312 1.921875 -26.03125 L 1.921875 -26.546875 L 1.84375 -27.359375 L 1.921875 -27.359375 C 1.867188 -27.472656 1.84375 -27.539062 1.84375 -27.5625 C 1.84375 -27.757812 1.867188 -27.859375 1.921875 -27.859375 L 1.84375 -28.546875 L 1.84375 -29.1875 C 1.84375 -30.925781 2.007812 -32.066406 2.34375 -32.609375 C 2.769531 -33.234375 3.414062 -33.546875 4.28125 -33.546875 Z M 9.484375 -28.546875 L 7.515625 -28.546875 C 7.316406 -28.546875 7.21875 -28.40625 7.21875 -28.125 C 7.28125 -21.800781 7.3125 -17.625 7.3125 -15.59375 L 7.390625 -15.421875 C 7.335938 -15.367188 7.3125 -15.257812 7.3125 -15.09375 C 7.363281 -14.75 7.390625 -14.5625 7.390625 -14.53125 L 7.3125 -14.53125 C 7.363281 -14.445312 7.390625 -14.375 7.390625 -14.3125 C 7.390625 -14.257812 7.363281 -14.234375 7.3125 -14.234375 L 7.390625 -13.890625 L 7.390625 -8.71875 C 7.390625 -8.601562 7.40625 -8.503906 7.4375 -8.421875 C 7.40625 -8.335938 7.390625 -8.238281 7.390625 -8.125 C 7.390625 -8.09375 7.40625 -8.035156 7.4375 -7.953125 L 7.390625 -7.78125 C 7.421875 -7.519531 7.4375 -7.332031 7.4375 -7.21875 L 7.390625 -7.09375 C 7.421875 -7.007812 7.4375 -6.9375 7.4375 -6.875 L 7.390625 -6.875 L 7.4375 -6.75 L 7.4375 -5.59375 C 7.46875 -5.226562 7.664062 -5.046875 8.03125 -5.046875 L 10.125 -5.046875 C 10.5 -5.046875 10.6875 -5.226562 10.6875 -5.59375 L 10.6875 -6.875 L 10.59375 -7.21875 L 10.6875 -7.21875 L 10.59375 -7.34375 C 10.59375 -9.507812 10.550781 -15.648438 10.46875 -25.765625 L 10.390625 -25.90625 C 10.441406 -25.988281 10.46875 -26.054688 10.46875 -26.109375 C 10.46875 -26.171875 10.441406 -26.203125 10.390625 -26.203125 L 10.46875 -26.546875 L 10.46875 -27.4375 C 10.46875 -27.550781 10.441406 -27.648438 10.390625 -27.734375 C 10.390625 -27.765625 10.414062 -27.78125 10.46875 -27.78125 L 10.46875 -28.171875 C 10.46875 -28.484375 10.328125 -28.640625 10.046875 -28.640625 L 9.921875 -28.546875 C 9.859375 -28.546875 9.828125 -28.578125 9.828125 -28.640625 Z M 9.484375 -28.546875 "/></g></g></g><g fill="#38b6ff" fill-opacity="1"><g transform="translate(145.623849, 254.907449)"><g><path d="M 11.921875 -33.640625 C 12.742188 -33.578125 13.382812 -33.546875 13.84375 -33.546875 L 15.390625 -33.546875 L 16.109375 -33.640625 L 16.109375 -33.546875 L 16.234375 -33.640625 L 16.578125 -33.640625 C 16.773438 -33.554688 16.875 -33.382812 16.875 -33.125 L 16.875 -32.4375 C 16.875 -31.550781 16.90625 -30.382812 16.96875 -28.9375 L 16.875 -28.9375 L 16.96875 -28.8125 L 16.96875 -28.375 C 17.050781 -21.113281 17.09375 -17.097656 17.09375 -16.328125 L 17.09375 -14.953125 C 17.09375 -14.835938 17.109375 -14.738281 17.140625 -14.65625 C 17.109375 -14.570312 17.09375 -14.503906 17.09375 -14.453125 L 17.140625 -14.3125 C 17.140625 -14.257812 17.125 -14.234375 17.09375 -14.234375 L 17.140625 -13.375 L 17.140625 -7.1875 C 17.140625 -6.8125 17.164062 -6.367188 17.21875 -5.859375 C 17.164062 -5.773438 17.140625 -5.675781 17.140625 -5.5625 C 17.191406 -5.46875 17.21875 -5.394531 17.21875 -5.34375 C 17.21875 -5.257812 17.191406 -5.21875 17.140625 -5.21875 L 17.21875 -4.359375 L 17.21875 -1.84375 C 17.21875 -0.613281 17.148438 0 17.015625 0 L 16.96875 0 C 16.570312 0 15.972656 0.015625 15.171875 0.046875 L 14.921875 0 C 14.660156 0.03125 14.445312 0.046875 14.28125 0.046875 C 14.101562 0.046875 13.515625 0.03125 12.515625 0 C 11.578125 -2.820312 9.941406 -7.78125 7.609375 -14.875 L 7.484375 -14.875 L 7.515625 -14.234375 C 7.515625 -14.085938 7.503906 -14.015625 7.484375 -14.015625 C 7.503906 -13.585938 7.515625 -13.347656 7.515625 -13.296875 C 7.578125 -7.828125 7.609375 -4.445312 7.609375 -3.15625 L 7.6875 -3.03125 L 7.609375 -2.90625 L 7.6875 -2.046875 C 7.6875 -1.992188 7.660156 -1.925781 7.609375 -1.84375 L 7.6875 -1.53125 C 7.6875 -0.507812 7.5625 0 7.3125 0 L 6.109375 0.125 C 5.992188 0.125 5.894531 0.0976562 5.8125 0.046875 C 5.78125 0.046875 5.765625 0.0703125 5.765625 0.125 L 5.390625 0.046875 L 4.140625 0.046875 C 4.023438 0.046875 3.925781 0.0703125 3.84375 0.125 C 3.757812 0.0703125 3.675781 0.046875 3.59375 0.046875 L 2.3125 0.046875 L 2.1875 0 L 2.21875 -0.515625 L 2.21875 -3.46875 C 2.21875 -3.582031 2.207031 -3.679688 2.1875 -3.765625 L 2.21875 -3.890625 C 2.195312 -4.148438 2.1875 -4.332031 2.1875 -4.4375 C 2.1875 -4.5 2.195312 -4.53125 2.21875 -4.53125 L 2.1875 -4.875 L 2.1875 -5.34375 C 2.1875 -5.394531 2.195312 -5.421875 2.21875 -5.421875 L 2.1875 -5.5625 L 2.1875 -11.703125 C 2.1875 -11.878906 2.15625 -12.097656 2.09375 -12.359375 C 2.09375 -12.378906 2.125 -12.390625 2.1875 -12.390625 C 1.976562 -24.304688 1.875 -31.21875 1.875 -33.125 C 1.875 -33.207031 1.988281 -33.347656 2.21875 -33.546875 L 2.953125 -33.46875 L 5.765625 -33.46875 C 5.796875 -33.46875 5.8125 -33.4375 5.8125 -33.375 L 5.984375 -33.46875 L 6.234375 -33.46875 C 6.296875 -33.46875 6.328125 -33.4375 6.328125 -33.375 C 6.410156 -33.4375 6.484375 -33.46875 6.546875 -33.46875 C 6.878906 -33.46875 7.09375 -33.097656 7.1875 -32.359375 C 7.695312 -31.210938 8.820312 -27.921875 10.5625 -22.484375 C 10.644531 -22.421875 11.113281 -21.09375 11.96875 -18.5 L 12.046875 -18.5 L 12.046875 -18.640625 C 11.992188 -21.140625 11.96875 -22.804688 11.96875 -23.640625 L 11.921875 -23.9375 C 11.921875 -23.96875 11.9375 -23.984375 11.96875 -23.984375 L 11.921875 -24.359375 L 11.921875 -25.125 C 11.921875 -25.351562 11.9375 -25.554688 11.96875 -25.734375 C 11.882812 -27.097656 11.8125 -29.617188 11.75 -33.296875 Z M 11.921875 -33.640625 "/></g></g></g><g fill="#38b6ff" fill-opacity="1"><g transform="translate(164.986736, 254.907449)"><g><path d="M 11.796875 -33.671875 L 11.796875 -33.59375 L 12.953125 -33.546875 C 14.234375 -33.492188 14.875 -32.882812 14.875 -31.71875 L 14.875 -25.90625 C 14.8125 -25.53125 14.625 -25.34375 14.3125 -25.34375 L 12.484375 -25.34375 L 11.96875 -25.265625 L 11.96875 -25.34375 L 11.84375 -25.265625 C 11.8125 -25.265625 11.796875 -25.289062 11.796875 -25.34375 L 11.625 -25.265625 L 10.6875 -25.265625 C 10.425781 -25.265625 10.296875 -25.375 10.296875 -25.59375 L 10.296875 -25.984375 C 10.296875 -26.296875 10.3125 -27.207031 10.34375 -28.71875 C 10.34375 -28.863281 10.269531 -28.9375 10.125 -28.9375 L 7.34375 -28.9375 C 7.125 -28.9375 7.015625 -28.820312 7.015625 -28.59375 C 7.066406 -28.21875 7.09375 -27.972656 7.09375 -27.859375 C 7.09375 -26.460938 7.109375 -24.34375 7.140625 -21.5 L 7.21875 -21.375 C 7.21875 -21.3125 7.191406 -21.28125 7.140625 -21.28125 C 7.191406 -20.738281 7.21875 -20.34375 7.21875 -20.09375 L 7.21875 -19.75 C 7.21875 -19.550781 7.238281 -18.023438 7.28125 -15.171875 C 7.320312 -12.328125 7.34375 -10.003906 7.34375 -8.203125 C 7.34375 -8.085938 7.375 -7.988281 7.4375 -7.90625 L 7.34375 -7.484375 L 7.34375 -5.390625 C 7.375 -5.015625 7.519531 -4.828125 7.78125 -4.828125 L 9.921875 -4.828125 C 10.140625 -4.828125 10.25 -4.984375 10.25 -5.296875 C 10.25 -5.921875 10.222656 -7.789062 10.171875 -10.90625 L 10.09375 -11.203125 C 10.09375 -11.253906 10.117188 -11.28125 10.171875 -11.28125 L 10.09375 -11.96875 L 10.09375 -12.515625 C 10.09375 -12.578125 10.117188 -12.609375 10.171875 -12.609375 L 10.09375 -12.734375 L 10.09375 -13.15625 C 10.09375 -13.21875 10.117188 -13.25 10.171875 -13.25 L 10.09375 -13.375 L 10.09375 -14.484375 C 10.09375 -14.941406 10.019531 -15.171875 9.875 -15.171875 C 9.8125 -15.234375 9.554688 -15.265625 9.109375 -15.265625 L 8.671875 -15.265625 C 8.554688 -15.265625 8.472656 -15.375 8.421875 -15.59375 L 8.46875 -16.109375 L 8.46875 -18.125 C 8.46875 -18.488281 8.492188 -18.929688 8.546875 -19.453125 L 8.46875 -19.625 C 8.519531 -20.019531 8.660156 -20.234375 8.890625 -20.265625 L 12.484375 -20.21875 L 12.953125 -20.296875 L 12.953125 -20.21875 L 13.125 -20.296875 L 13.9375 -20.296875 C 14.1875 -20.296875 14.515625 -20.328125 14.921875 -20.390625 L 15.21875 -19.953125 L 15.21875 -19.875 C 15.21875 -19.84375 15.1875 -19.828125 15.125 -19.828125 C 15.125 -19.773438 15.15625 -19.75 15.21875 -19.75 L 15.125 -19.40625 L 15.21875 -19.109375 L 15.125 -19.109375 L 15.21875 -18.96875 L 15.21875 -13.25 C 15.21875 -13.082031 15.234375 -12.867188 15.265625 -12.609375 C 15.234375 -12.546875 15.21875 -12.375 15.21875 -12.09375 L 15.21875 -11.671875 C 15.21875 -11.359375 15.234375 -11.085938 15.265625 -10.859375 C 15.265625 -10.742188 15.25 -10.644531 15.21875 -10.5625 C 15.25 -9.707031 15.265625 -8.976562 15.265625 -8.375 L 15.265625 -6.28125 L 15.34375 -5.9375 L 15.265625 -5.9375 L 15.34375 -5.8125 L 15.265625 -5.6875 L 15.34375 -5.296875 L 15.265625 -5.296875 L 15.34375 -5.171875 L 15.34375 -3.078125 C 15.34375 -2.910156 15.316406 -2.65625 15.265625 -2.3125 C 14.859375 -0.71875 13.816406 0.078125 12.140625 0.078125 C 7.921875 0.109375 5.410156 0.125 4.609375 0.125 C 3.785156 0.125 3.101562 -0.1875 2.5625 -0.8125 C 2.132812 -1.207031 1.921875 -1.878906 1.921875 -2.828125 C 1.804688 -11.910156 1.75 -17.476562 1.75 -19.53125 L 1.703125 -20.390625 L 1.75 -20.390625 C 1.71875 -20.472656 1.703125 -20.539062 1.703125 -20.59375 C 1.703125 -22.53125 1.675781 -25.796875 1.625 -30.390625 C 1.625 -31.273438 1.894531 -32.03125 2.4375 -32.65625 C 2.894531 -33.25 3.578125 -33.546875 4.484375 -33.546875 L 5.46875 -33.546875 C 5.53125 -33.546875 5.5625 -33.519531 5.5625 -33.46875 L 5.6875 -33.546875 L 7.5625 -33.546875 C 7.675781 -33.546875 7.773438 -33.5625 7.859375 -33.59375 C 7.953125 -33.5625 8.023438 -33.546875 8.078125 -33.546875 L 8.546875 -33.59375 L 8.671875 -33.546875 C 8.785156 -33.578125 8.859375 -33.59375 8.890625 -33.59375 L 8.890625 -33.546875 L 9.0625 -33.59375 L 11.28125 -33.59375 Z M 11.796875 -33.671875 "/></g></g></g><g fill="#38b6ff" fill-opacity="1"><g transform="translate(182.041464, 254.907449)"><g><path d="M 10.734375 -33.515625 C 10.785156 -33.484375 10.953125 -33.46875 11.234375 -33.46875 C 11.328125 -33.5 11.382812 -33.515625 11.40625 -33.515625 L 11.40625 -33.46875 L 11.578125 -33.515625 L 12.5625 -33.515625 C 13.332031 -33.515625 13.71875 -33.382812 13.71875 -33.125 C 13.78125 -32.925781 13.8125 -32.710938 13.8125 -32.484375 L 13.8125 -31.75 C 13.8125 -31.632812 13.78125 -31.578125 13.71875 -31.578125 L 13.8125 -31.203125 L 13.8125 -28.984375 C 13.8125 -28.410156 13.648438 -28.125 13.328125 -28.125 L 10.515625 -28.125 L 10.390625 -28.078125 L 10.46875 -27.359375 C 10.46875 -25.984375 10.441406 -23.859375 10.390625 -20.984375 L 10.46875 -20.640625 C 10.46875 -20.609375 10.441406 -20.59375 10.390625 -20.59375 L 10.46875 -20.09375 L 10.46875 -18.296875 C 10.46875 -18.003906 10.441406 -17.859375 10.390625 -17.859375 L 10.46875 -17.140625 L 10.46875 -1.375 C 10.46875 -1.113281 10.484375 -0.710938 10.515625 -0.171875 C 10.398438 -0.0234375 8.890625 0.046875 5.984375 0.046875 L 5.6875 0.046875 C 5.375 0.015625 5.1875 -0.15625 5.125 -0.46875 C 5.101562 -1.15625 5.09375 -1.726562 5.09375 -2.1875 L 5.09375 -10.046875 L 5 -10.421875 C 5.0625 -10.515625 5.09375 -10.644531 5.09375 -10.8125 L 5.09375 -11.375 C 5.09375 -11.507812 5.0625 -11.578125 5 -11.578125 L 5.09375 -11.921875 L 5.09375 -22.265625 C 5.09375 -23.546875 5.035156 -25.457031 4.921875 -28 C 4.890625 -28 4.875 -28.023438 4.875 -28.078125 L 4.140625 -28 L 1.328125 -28 C 1.128906 -28.082031 1.03125 -28.476562 1.03125 -29.1875 L 1.0625 -29.453125 L 0.9375 -30.8125 C 1 -31.207031 1.03125 -31.460938 1.03125 -31.578125 C 0.96875 -32.179688 0.9375 -32.664062 0.9375 -33.03125 C 0.9375 -33.320312 1.050781 -33.46875 1.28125 -33.46875 L 2.015625 -33.375 C 2.035156 -33.375 2.09375 -33.40625 2.1875 -33.46875 C 2.238281 -33.46875 2.304688 -33.4375 2.390625 -33.375 C 3.554688 -33.4375 4.46875 -33.46875 5.125 -33.46875 L 5.984375 -33.46875 C 6.015625 -33.46875 6.03125 -33.4375 6.03125 -33.375 L 6.203125 -33.46875 L 9.28125 -33.46875 C 9.644531 -33.46875 10.128906 -33.484375 10.734375 -33.515625 Z M 10.734375 -33.515625 "/></g></g></g><g fill="#38b6ff" fill-opacity="1"><g transform="translate(197.001752, 254.907449)"><g><path d="M 11.671875 -33.515625 C 12.921875 -33.515625 13.773438 -33.3125 14.234375 -32.90625 C 14.691406 -32.507812 14.921875 -31.925781 14.921875 -31.15625 L 14.921875 -28.46875 L 15 -27.65625 L 14.921875 -27.65625 L 15 -27.53125 L 15 -24.28125 C 15 -24.164062 15.015625 -24.078125 15.046875 -24.015625 C 15.015625 -23.929688 15 -23.832031 15 -23.71875 L 15 -23.640625 L 15.046875 -23.296875 L 15 -23.296875 L 15.046875 -23.171875 L 15.046875 -22.953125 C 15.046875 -22.921875 15.03125 -22.90625 15 -22.90625 L 15.046875 -22.734375 L 15.046875 -22.015625 L 15 -21.578125 C 15 -21.523438 15.015625 -21.5 15.046875 -21.5 L 15 -21.15625 L 15 -21.03125 C 15 -19.207031 14.472656 -17.96875 13.421875 -17.3125 C 14.191406 -17.113281 14.773438 -16.597656 15.171875 -15.765625 C 15.316406 -15.222656 15.390625 -14.753906 15.390625 -14.359375 C 15.441406 -9.035156 15.46875 -5.972656 15.46875 -5.171875 L 15.5625 -5 C 15.5 -4.914062 15.46875 -4.84375 15.46875 -4.78125 C 15.53125 -4.695312 15.5625 -4.640625 15.5625 -4.609375 L 15.46875 -4.609375 L 15.5625 -4.4375 L 15.5625 -1.84375 C 15.5625 -1.15625 15.703125 -0.640625 15.984375 -0.296875 L 15.984375 -0.171875 C 15.984375 -0.109375 15.910156 -0.0351562 15.765625 0.046875 C 14.773438 -0.015625 14.125 -0.046875 13.8125 -0.046875 L 13.8125 -0.078125 L 13.640625 -0.046875 L 11.546875 -0.21875 C 11.453125 -0.21875 11.363281 -0.1875 11.28125 -0.125 C 10.738281 -0.125 10.410156 -0.910156 10.296875 -2.484375 C 10.265625 -7.265625 10.25 -10.625 10.25 -12.5625 C 10.195312 -12.820312 10.171875 -12.96875 10.171875 -13 L 10.25 -13.125 C 10.195312 -13.582031 10.171875 -13.953125 10.171875 -14.234375 C 10.171875 -14.828125 9.941406 -15.125 9.484375 -15.125 L 7.140625 -15.171875 C 7.140625 -15.085938 7.125 -15.046875 7.09375 -15.046875 L 7.140625 -14.921875 L 7.140625 -9.359375 C 7.140625 -9.242188 7.164062 -9.144531 7.21875 -9.0625 C 7.21875 -9.03125 7.191406 -9.015625 7.140625 -9.015625 L 7.21875 -8.671875 L 7.21875 -4.875 L 7.265625 -4.1875 L 7.21875 -4.1875 L 7.265625 -4.0625 L 7.265625 -0.8125 L 7.34375 -0.34375 C 7.175781 -0.195312 6.894531 -0.125 6.5 -0.125 L 5.34375 -0.125 C 5.226562 -0.125 5.128906 -0.0976562 5.046875 -0.046875 C 4.960938 -0.0976562 4.890625 -0.125 4.828125 -0.125 C 3.578125 -0.0703125 2.804688 -0.03125 2.515625 0 C 2.296875 -0.03125 2.140625 -0.375 2.046875 -1.03125 C 2.109375 -1.34375 2.140625 -1.597656 2.140625 -1.796875 C 2.140625 -1.828125 2.109375 -1.882812 2.046875 -1.96875 L 2.140625 -2.390625 L 2.140625 -3.078125 C 2.140625 -3.242188 2.109375 -3.359375 2.046875 -3.421875 L 2.140625 -3.84375 L 2.140625 -4.3125 C 2.140625 -4.425781 2.109375 -4.523438 2.046875 -4.609375 C 2.109375 -4.703125 2.140625 -4.757812 2.140625 -4.78125 C 2.140625 -4.894531 2.109375 -5.410156 2.046875 -6.328125 C 2.046875 -6.378906 2.078125 -6.40625 2.140625 -6.40625 L 2.046875 -6.75 L 2.046875 -14.828125 C 2.046875 -14.890625 2.078125 -14.921875 2.140625 -14.921875 C 2.140625 -15.085938 2.039062 -15.171875 1.84375 -15.171875 L 1.03125 -15.171875 C 0.625 -15.171875 0.421875 -15.285156 0.421875 -15.515625 C 0.421875 -15.742188 0.410156 -16.097656 0.390625 -16.578125 L 0.421875 -16.578125 C 0.421875 -16.609375 0.410156 -16.625 0.390625 -16.625 C 0.390625 -16.707031 0.398438 -16.75 0.421875 -16.75 C 0.398438 -17.289062 0.390625 -17.691406 0.390625 -17.953125 L 0.390625 -18.890625 C 0.390625 -18.941406 0.398438 -18.96875 0.421875 -18.96875 C 0.398438 -19.0625 0.390625 -19.132812 0.390625 -19.1875 L 0.421875 -19.453125 L 0.390625 -19.578125 C 0.410156 -19.660156 0.421875 -19.757812 0.421875 -19.875 C 0.421875 -20.019531 0.535156 -20.101562 0.765625 -20.125 L 1.96875 -20.125 C 1.96875 -20.351562 1.992188 -20.46875 2.046875 -20.46875 L 1.96875 -21.328125 L 1.96875 -23.9375 C 1.96875 -24.394531 1.953125 -25.078125 1.921875 -25.984375 L 1.96875 -25.984375 L 1.921875 -26.15625 L 1.921875 -27.65625 C 1.921875 -28.476562 1.894531 -29.488281 1.84375 -30.6875 C 1.894531 -30.945312 1.921875 -31.132812 1.921875 -31.25 C 1.867188 -31.5625 1.84375 -32.015625 1.84375 -32.609375 C 1.84375 -33.066406 1.941406 -33.320312 2.140625 -33.375 L 4.65625 -33.375 L 5.09375 -33.421875 C 5.175781 -33.390625 5.285156 -33.375 5.421875 -33.375 C 5.910156 -33.40625 6.179688 -33.421875 6.234375 -33.421875 L 6.375 -33.375 L 6.546875 -33.421875 L 6.875 -33.375 L 7.21875 -33.421875 L 7.21875 -33.375 L 7.34375 -33.421875 L 11.40625 -33.421875 C 11.519531 -33.421875 11.609375 -33.453125 11.671875 -33.515625 Z M 6.921875 -28.203125 L 6.921875 -24.828125 C 6.921875 -24.710938 6.953125 -24.628906 7.015625 -24.578125 C 7.015625 -24.515625 6.984375 -24.484375 6.921875 -24.484375 L 7.015625 -23.8125 L 7.015625 -23.46875 C 7.015625 -22.75 7.039062 -21.664062 7.09375 -20.21875 L 7.4375 -20.125 L 8.796875 -20.125 C 8.972656 -20.125 9.175781 -20.15625 9.40625 -20.21875 C 9.488281 -20.15625 9.585938 -20.125 9.703125 -20.125 C 9.703125 -20.21875 9.742188 -20.265625 9.828125 -20.265625 L 9.75 -20.421875 L 9.828125 -20.5625 C 9.828125 -20.613281 9.800781 -20.640625 9.75 -20.640625 L 9.828125 -20.984375 C 9.828125 -21.179688 9.800781 -21.410156 9.75 -21.671875 C 9.800781 -21.898438 9.828125 -22.128906 9.828125 -22.359375 C 9.773438 -22.578125 9.75 -22.703125 9.75 -22.734375 C 9.75 -22.796875 9.773438 -22.828125 9.828125 -22.828125 L 9.75 -23.171875 L 9.75 -27.390625 C 9.75 -27.484375 9.734375 -27.570312 9.703125 -27.65625 C 9.734375 -27.738281 9.75 -27.820312 9.75 -27.90625 L 9.75 -28.34375 L 7.09375 -28.34375 C 6.976562 -28.34375 6.921875 -28.296875 6.921875 -28.203125 Z M 6.921875 -28.203125 "/></g></g></g><g fill="#38b6ff" fill-opacity="1"><g transform="translate(214.141968, 254.907449)"><g><path d="M 4.28125 -33.546875 L 4.65625 -33.546875 C 4.6875 -33.546875 4.703125 -33.519531 4.703125 -33.46875 L 4.875 -33.546875 L 9.1875 -33.546875 L 9.40625 -33.421875 L 9.484375 -33.421875 L 9.484375 -33.546875 L 13.328125 -33.546875 C 14.078125 -33.546875 14.648438 -33.265625 15.046875 -32.703125 L 15.046875 -32.21875 C 15.359375 -32.21875 15.515625 -31.394531 15.515625 -29.75 L 15.515625 -26.109375 C 15.515625 -25.992188 15.539062 -25.894531 15.59375 -25.8125 C 15.59375 -25.78125 15.566406 -25.765625 15.515625 -25.765625 L 15.59375 -24.625 C 15.59375 -22.625 15.640625 -19.703125 15.734375 -15.859375 L 15.640625 -15.859375 L 15.734375 -15.734375 L 15.734375 -14.015625 C 15.734375 -13.984375 15.703125 -13.96875 15.640625 -13.96875 L 15.734375 -13.8125 L 15.734375 -13.421875 C 15.734375 -13.359375 15.703125 -13.328125 15.640625 -13.328125 L 15.734375 -13.203125 L 15.734375 -5.59375 C 15.734375 -5.34375 15.703125 -5.015625 15.640625 -4.609375 L 15.734375 -3.203125 C 15.734375 -2.066406 15.445312 -1.269531 14.875 -0.8125 C 14.332031 -0.1875 13.59375 0.125 12.65625 0.125 L 10.171875 0.125 L 9.484375 0.21875 L 9.484375 0.125 L 9.359375 0.21875 L 5.859375 0.21875 C 4.316406 0.21875 3.304688 -0.140625 2.828125 -0.859375 C 2.398438 -1.535156 2.1875 -2.160156 2.1875 -2.734375 L 2.265625 -3.03125 C 2.265625 -3.09375 2.238281 -3.320312 2.1875 -3.71875 L 2.265625 -4.359375 C 2.265625 -4.390625 2.238281 -4.40625 2.1875 -4.40625 L 2.265625 -4.78125 L 2.265625 -5.25 C 2.265625 -5.363281 2.238281 -5.46875 2.1875 -5.5625 L 2.265625 -5.6875 C 2.265625 -5.738281 2.238281 -5.765625 2.1875 -5.765625 C 2.1875 -5.847656 2.210938 -5.890625 2.265625 -5.890625 L 2.140625 -9.53125 C 2.140625 -9.582031 2.15625 -9.65625 2.1875 -9.75 C 2.15625 -10.625 2.140625 -11.347656 2.140625 -11.921875 L 2.140625 -13.8125 C 2.140625 -13.914062 2.109375 -14.015625 2.046875 -14.109375 L 2.140625 -14.234375 C 2.078125 -16.171875 2.019531 -17.4375 1.96875 -18.03125 L 2.046875 -18.328125 L 1.921875 -22.3125 L 1.96875 -22.4375 C 1.9375 -22.945312 1.921875 -23.40625 1.921875 -23.8125 L 1.921875 -25.46875 C 1.921875 -25.582031 1.894531 -25.679688 1.84375 -25.765625 C 1.894531 -25.859375 1.921875 -25.945312 1.921875 -26.03125 L 1.921875 -26.546875 L 1.84375 -27.359375 L 1.921875 -27.359375 C 1.867188 -27.472656 1.84375 -27.539062 1.84375 -27.5625 C 1.84375 -27.757812 1.867188 -27.859375 1.921875 -27.859375 L 1.84375 -28.546875 L 1.84375 -29.1875 C 1.84375 -30.925781 2.007812 -32.066406 2.34375 -32.609375 C 2.769531 -33.234375 3.414062 -33.546875 4.28125 -33.546875 Z M 9.484375 -28.546875 L 7.515625 -28.546875 C 7.316406 -28.546875 7.21875 -28.40625 7.21875 -28.125 C 7.28125 -21.800781 7.3125 -17.625 7.3125 -15.59375 L 7.390625 -15.421875 C 7.335938 -15.367188 7.3125 -15.257812 7.3125 -15.09375 C 7.363281 -14.75 7.390625 -14.5625 7.390625 -14.53125 L 7.3125 -14.53125 C 7.363281 -14.445312 7.390625 -14.375 7.390625 -14.3125 C 7.390625 -14.257812 7.363281 -14.234375 7.3125 -14.234375 L 7.390625 -13.890625 L 7.390625 -8.71875 C 7.390625 -8.601562 7.40625 -8.503906 7.4375 -8.421875 C 7.40625 -8.335938 7.390625 -8.238281 7.390625 -8.125 C 7.390625 -8.09375 7.40625 -8.035156 7.4375 -7.953125 L 7.390625 -7.78125 C 7.421875 -7.519531 7.4375 -7.332031 7.4375 -7.21875 L 7.390625 -7.09375 C 7.421875 -7.007812 7.4375 -6.9375 7.4375 -6.875 L 7.390625 -6.875 L 7.4375 -6.75 L 7.4375 -5.59375 C 7.46875 -5.226562 7.664062 -5.046875 8.03125 -5.046875 L 10.125 -5.046875 C 10.5 -5.046875 10.6875 -5.226562 10.6875 -5.59375 L 10.6875 -6.875 L 10.59375 -7.21875 L 10.6875 -7.21875 L 10.59375 -7.34375 C 10.59375 -9.507812 10.550781 -15.648438 10.46875 -25.765625 L 10.390625 -25.90625 C 10.441406 -25.988281 10.46875 -26.054688 10.46875 -26.109375 C 10.46875 -26.171875 10.441406 -26.203125 10.390625 -26.203125 L 10.46875 -26.546875 L 10.46875 -27.4375 C 10.46875 -27.550781 10.441406 -27.648438 10.390625 -27.734375 C 10.390625 -27.765625 10.414062 -27.78125 10.46875 -27.78125 L 10.46875 -28.171875 C 10.46875 -28.484375 10.328125 -28.640625 10.046875 -28.640625 L 9.921875 -28.546875 C 9.859375 -28.546875 9.828125 -28.578125 9.828125 -28.640625 Z M 9.484375 -28.546875 "/></g></g></g><g fill="#38b6ff" fill-opacity="1"><g transform="translate(231.837851, 254.907449)"><g><path d="M 15.515625 -33.59375 L 20.265625 -33.59375 C 20.367188 -33.59375 20.4375 -33.421875 20.46875 -33.078125 C 20.414062 -32.992188 20.390625 -32.921875 20.390625 -32.859375 C 20.390625 -32.835938 20.414062 -32.828125 20.46875 -32.828125 L 20.390625 -32.484375 L 20.421875 -25.34375 L 20.515625 -24.625 L 20.421875 -24.625 L 20.515625 -24.484375 L 20.515625 -21.234375 C 20.515625 -21.015625 20.53125 -20.660156 20.5625 -20.171875 L 20.515625 -20.171875 L 20.5625 -20.046875 L 20.5625 -19.953125 C 20.5625 -19.816406 20.546875 -19.75 20.515625 -19.75 L 20.5625 -19.40625 L 20.5625 -17.21875 C 20.5625 -16.738281 20.585938 -16.171875 20.640625 -15.515625 L 20.5625 -15.390625 C 20.613281 -15.304688 20.640625 -15.207031 20.640625 -15.09375 L 20.640625 -14.75 C 20.640625 -14.6875 20.613281 -14.65625 20.5625 -14.65625 L 20.640625 -14.53125 C 20.640625 -9.832031 20.710938 -5.046875 20.859375 -0.171875 C 20.773438 -0.140625 20.734375 -0.0976562 20.734375 -0.046875 L 20.21875 -0.078125 L 20 -0.078125 C 19.800781 -0.078125 19.546875 -0.0664062 19.234375 -0.046875 C 19.171875 -0.046875 19.140625 -0.0546875 19.140625 -0.078125 L 18.8125 -0.046875 C 18.351562 -0.046875 17.382812 -0.015625 15.90625 0.046875 C 15.582031 -0.015625 15.421875 -0.0859375 15.421875 -0.171875 L 15.421875 -2.3125 C 15.421875 -2.332031 15.4375 -2.34375 15.46875 -2.34375 L 15.421875 -2.515625 L 15.421875 -12.90625 C 15.421875 -13.613281 15.46875 -14.410156 15.5625 -15.296875 L 15.421875 -15.296875 C 14.171875 -9.679688 13.0625 -4.753906 12.09375 -0.515625 L 11.796875 -0.515625 L 9.953125 -7.515625 C 9.296875 -10.140625 8.539062 -12.664062 7.6875 -15.09375 L 7.65625 -15.09375 L 7.65625 -11.328125 C 7.65625 -11.046875 7.664062 -10.578125 7.6875 -9.921875 L 7.65625 -9.921875 C 7.675781 -9.828125 7.6875 -9.753906 7.6875 -9.703125 C 7.6875 -7.960938 7.71875 -4.753906 7.78125 -0.078125 L 7.5625 0.046875 L 6.796875 0.046875 L 6.375 -0.046875 C 6.28125 0.015625 6.164062 0.046875 6.03125 0.046875 L 6.03125 -0.046875 L 5.859375 0.046875 L 5.171875 0.046875 C 4.796875 0.046875 4.46875 0.015625 4.1875 -0.046875 C 3.925781 0.015625 3.65625 0.046875 3.375 0.046875 C 2.863281 0.046875 2.609375 -0.140625 2.609375 -0.515625 C 2.609375 -0.546875 2.59375 -0.6875 2.5625 -0.9375 C 2.507812 -4.53125 2.484375 -7.410156 2.484375 -9.578125 L 2.484375 -9.703125 L 2.390625 -10.21875 L 2.484375 -10.21875 C 2.484375 -10.269531 2.453125 -10.296875 2.390625 -10.296875 C 2.390625 -10.378906 2.421875 -10.421875 2.484375 -10.421875 L 2.390625 -11.28125 L 2.390625 -19.1875 L 2.34375 -19.875 L 2.390625 -19.875 L 2.34375 -20.046875 L 2.3125 -32.734375 L 2.3125 -33.25 C 2.3125 -33.3125 2.378906 -33.382812 2.515625 -33.46875 L 7.609375 -33.46875 C 7.722656 -33.46875 7.90625 -32.753906 8.15625 -31.328125 C 8.90625 -28.796875 10.117188 -24.109375 11.796875 -17.265625 L 11.875 -17.265625 C 11.988281 -17.265625 12.203125 -18.019531 12.515625 -19.53125 C 12.660156 -20.695312 13.488281 -25.269531 15 -33.25 C 15.082031 -33.476562 15.253906 -33.59375 15.515625 -33.59375 Z M 15.515625 -33.59375 "/></g></g></g><g fill="#38b6ff" fill-opacity="1"><g transform="translate(254.919439, 254.907449)"><g><path d="M 4.28125 -33.546875 L 4.65625 -33.546875 C 4.6875 -33.546875 4.703125 -33.519531 4.703125 -33.46875 L 4.875 -33.546875 L 9.1875 -33.546875 L 9.40625 -33.421875 L 9.484375 -33.421875 L 9.484375 -33.546875 L 13.328125 -33.546875 C 14.078125 -33.546875 14.648438 -33.265625 15.046875 -32.703125 L 15.046875 -32.21875 C 15.359375 -32.21875 15.515625 -31.394531 15.515625 -29.75 L 15.515625 -26.109375 C 15.515625 -25.992188 15.539062 -25.894531 15.59375 -25.8125 C 15.59375 -25.78125 15.566406 -25.765625 15.515625 -25.765625 L 15.59375 -24.625 C 15.59375 -22.625 15.640625 -19.703125 15.734375 -15.859375 L 15.640625 -15.859375 L 15.734375 -15.734375 L 15.734375 -14.015625 C 15.734375 -13.984375 15.703125 -13.96875 15.640625 -13.96875 L 15.734375 -13.8125 L 15.734375 -13.421875 C 15.734375 -13.359375 15.703125 -13.328125 15.640625 -13.328125 L 15.734375 -13.203125 L 15.734375 -5.59375 C 15.734375 -5.34375 15.703125 -5.015625 15.640625 -4.609375 L 15.734375 -3.203125 C 15.734375 -2.066406 15.445312 -1.269531 14.875 -0.8125 C 14.332031 -0.1875 13.59375 0.125 12.65625 0.125 L 10.171875 0.125 L 9.484375 0.21875 L 9.484375 0.125 L 9.359375 0.21875 L 5.859375 0.21875 C 4.316406 0.21875 3.304688 -0.140625 2.828125 -0.859375 C 2.398438 -1.535156 2.1875 -2.160156 2.1875 -2.734375 L 2.265625 -3.03125 C 2.265625 -3.09375 2.238281 -3.320312 2.1875 -3.71875 L 2.265625 -4.359375 C 2.265625 -4.390625 2.238281 -4.40625 2.1875 -4.40625 L 2.265625 -4.78125 L 2.265625 -5.25 C 2.265625 -5.363281 2.238281 -5.46875 2.1875 -5.5625 L 2.265625 -5.6875 C 2.265625 -5.738281 2.238281 -5.765625 2.1875 -5.765625 C 2.1875 -5.847656 2.210938 -5.890625 2.265625 -5.890625 L 2.140625 -9.53125 C 2.140625 -9.582031 2.15625 -9.65625 2.1875 -9.75 C 2.15625 -10.625 2.140625 -11.347656 2.140625 -11.921875 L 2.140625 -13.8125 C 2.140625 -13.914062 2.109375 -14.015625 2.046875 -14.109375 L 2.140625 -14.234375 C 2.078125 -16.171875 2.019531 -17.4375 1.96875 -18.03125 L 2.046875 -18.328125 L 1.921875 -22.3125 L 1.96875 -22.4375 C 1.9375 -22.945312 1.921875 -23.40625 1.921875 -23.8125 L 1.921875 -25.46875 C 1.921875 -25.582031 1.894531 -25.679688 1.84375 -25.765625 C 1.894531 -25.859375 1.921875 -25.945312 1.921875 -26.03125 L 1.921875 -26.546875 L 1.84375 -27.359375 L 1.921875 -27.359375 C 1.867188 -27.472656 1.84375 -27.539062 1.84375 -27.5625 C 1.84375 -27.757812 1.867188 -27.859375 1.921875 -27.859375 L 1.84375 -28.546875 L 1.84375 -29.1875 C 1.84375 -30.925781 2.007812 -32.066406 2.34375 -32.609375 C 2.769531 -33.234375 3.414062 -33.546875 4.28125 -33.546875 Z M 9.484375 -28.546875 L 7.515625 -28.546875 C 7.316406 -28.546875 7.21875 -28.40625 7.21875 -28.125 C 7.28125 -21.800781 7.3125 -17.625 7.3125 -15.59375 L 7.390625 -15.421875 C 7.335938 -15.367188 7.3125 -15.257812 7.3125 -15.09375 C 7.363281 -14.75 7.390625 -14.5625 7.390625 -14.53125 L 7.3125 -14.53125 C 7.363281 -14.445312 7.390625 -14.375 7.390625 -14.3125 C 7.390625 -14.257812 7.363281 -14.234375 7.3125 -14.234375 L 7.390625 -13.890625 L 7.390625 -8.71875 C 7.390625 -8.601562 7.40625 -8.503906 7.4375 -8.421875 C 7.40625 -8.335938 7.390625 -8.238281 7.390625 -8.125 C 7.390625 -8.09375 7.40625 -8.035156 7.4375 -7.953125 L 7.390625 -7.78125 C 7.421875 -7.519531 7.4375 -7.332031 7.4375 -7.21875 L 7.390625 -7.09375 C 7.421875 -7.007812 7.4375 -6.9375 7.4375 -6.875 L 7.390625 -6.875 L 7.4375 -6.75 L 7.4375 -5.59375 C 7.46875 -5.226562 7.664062 -5.046875 8.03125 -5.046875 L 10.125 -5.046875 C 10.5 -5.046875 10.6875 -5.226562 10.6875 -5.59375 L 10.6875 -6.875 L 10.59375 -7.21875 L 10.6875 -7.21875 L 10.59375 -7.34375 C 10.59375 -9.507812 10.550781 -15.648438 10.46875 -25.765625 L 10.390625 -25.90625 C 10.441406 -25.988281 10.46875 -26.054688 10.46875 -26.109375 C 10.46875 -26.171875 10.441406 -26.203125 10.390625 -26.203125 L 10.46875 -26.546875 L 10.46875 -27.4375 C 10.46875 -27.550781 10.441406 -27.648438 10.390625 -27.734375 C 10.390625 -27.765625 10.414062 -27.78125 10.46875 -27.78125 L 10.46875 -28.171875 C 10.46875 -28.484375 10.328125 -28.640625 10.046875 -28.640625 L 9.921875 -28.546875 C 9.859375 -28.546875 9.828125 -28.578125 9.828125 -28.640625 Z M 9.484375 -28.546875 "/></g></g></g><g fill="#38b6ff" fill-opacity="1"><g transform="translate(272.615322, 254.907449)"><g><path d="M 2.21875 -21.03125 L 1.875 -33.125 C 1.875 -33.382812 2.203125 -33.515625 2.859375 -33.515625 L 7.046875 -33.515625 C 7.222656 -33.484375 7.3125 -33.394531 7.3125 -33.25 C 7.394531 -23.988281 7.4375 -18.257812 7.4375 -16.0625 L 7.5625 -15.171875 C 7.5625 -15.085938 7.519531 -15.046875 7.4375 -15.046875 C 7.519531 -14.304688 7.601562 -10.160156 7.6875 -2.609375 L 7.828125 -2.34375 C 7.734375 -2.207031 7.6875 -2.039062 7.6875 -1.84375 L 7.6875 -0.34375 C 7.6875 -0.164062 7.601562 -0.078125 7.4375 -0.078125 L 4.40625 -0.078125 L 3.5 0.046875 L 3.5 -0.078125 L 3.25 0.046875 L 2.484375 0.046875 C 2.367188 0.046875 2.238281 -0.125 2.09375 -0.46875 C 2.09375 -0.8125 2.132812 -1.15625 2.21875 -1.5 Z M 2.21875 -21.03125 "/></g></g></g></svg>
